<svg width="79" height="78" viewBox="0 0 79 78" fill="none" xmlns="http://www.w3.org/2000/svg">
<ellipse cx="39.0449" cy="38.6111" rx="39.0449" ry="38.6111" fill="#2E95FF"/>
<path d="M21.6059 49.8372C19.7217 47.1754 19.5147 43.3852 21.1826 39.1509C22.8428 34.9362 26.2887 30.537 31.1987 27.0615C36.1087 23.5859 41.4031 21.7982 45.93 21.6334C50.4779 21.4678 53.9838 22.9229 55.868 25.5848C57.7522 28.2466 57.9592 32.0368 56.2913 36.2711C54.6311 40.4858 51.1852 44.885 46.2752 48.3605C41.3652 51.8361 36.0708 53.6238 31.5438 53.7886C26.996 53.9542 23.4901 52.4991 21.6059 49.8372Z" fill="white" stroke="#2E95FF" stroke-width="4"/>
<line x1="30.4791" y1="27.8149" x2="48.7001" y2="47.7712" stroke="#2E95FF" stroke-width="5"/>
<line x1="49.2508" y1="27.8133" x2="58.7952" y2="21.7396" stroke="white" stroke-width="4"/>
<line x1="18.0149" y1="52.1079" x2="27.5592" y2="46.0343" stroke="white" stroke-width="4"/>
</svg>
